<svg width="94" height="94" viewBox="0 0 94 94" fill="none" xmlns="http://www.w3.org/2000/svg">
<path d="M46.5093 79.8C46.7819 79.8 47.0545 79.7317 47.3271 79.595C47.5997 79.4583 47.8042 79.3217 47.9405 79.185L81.4707 45.565C82.2885 44.745 82.8848 43.8225 83.2597 42.7975C83.6345 41.7725 83.8219 40.7475 83.8219 39.7225C83.8219 38.6292 83.6345 37.5871 83.2597 36.5963C82.8848 35.6054 82.2885 34.7342 81.4707 33.9825L64.0922 16.5575C63.3426 15.7375 62.4736 15.1396 61.4855 14.7638C60.4973 14.3879 59.458 14.2 58.3676 14.2C57.3453 14.2 56.323 14.3879 55.3008 14.7638C54.2785 15.1396 53.3585 15.7375 52.5407 16.5575L51.4162 17.685L58.9809 25.3725C60.0032 26.3292 60.7528 27.4225 61.2299 28.6525C61.707 29.8825 61.9455 31.1808 61.9455 32.5475C61.9455 35.4175 60.9743 37.8263 59.032 39.7738C57.0897 41.7212 54.6874 42.695 51.8251 42.695C50.4621 42.695 49.1502 42.4558 47.8894 41.9775C46.6286 41.4992 45.5211 40.7817 44.567 39.825L36.9 32.24L19.0104 50.1775C18.806 50.3825 18.6527 50.6046 18.5504 50.8438C18.4482 51.0829 18.3971 51.3392 18.3971 51.6125C18.3971 52.1592 18.6015 52.6546 19.0104 53.0988C19.4194 53.5429 19.8964 53.765 20.4416 53.765C20.7142 53.765 20.9868 53.6967 21.2594 53.56C21.532 53.4233 21.7365 53.2867 21.8728 53.15L35.7756 39.21L41.5002 44.95L27.6997 58.89C27.4952 59.095 27.3419 59.3171 27.2397 59.5562C27.1374 59.7954 27.0863 60.0517 27.0863 60.325C27.0863 60.8717 27.2908 61.35 27.6997 61.76C28.1086 62.17 28.5856 62.375 29.1308 62.375C29.4035 62.375 29.6761 62.3067 29.9487 62.17C30.2213 62.0333 30.4257 61.8967 30.562 61.76L44.4648 47.9225L50.1895 53.6625L36.3889 67.6025C36.1845 67.7392 36.0311 67.9442 35.9289 68.2175C35.8267 68.4908 35.7756 68.7642 35.7756 69.0375C35.7756 69.5842 35.98 70.0625 36.3889 70.4725C36.7978 70.8825 37.2749 71.0875 37.8201 71.0875C38.0927 71.0875 38.3482 71.0362 38.5868 70.9337C38.8253 70.8313 39.0468 70.6775 39.2512 70.4725L53.154 56.635L58.8787 62.375L44.9759 76.315C44.7715 76.52 44.6181 76.7421 44.5159 76.9812C44.4137 77.2204 44.3626 77.4767 44.3626 77.75C44.3626 78.2967 44.584 78.775 45.027 79.185C45.47 79.595 45.9641 79.8 46.5093 79.8ZM46.4071 88C43.8855 88 41.6536 87.1629 39.7113 85.4887C37.769 83.8146 36.6274 81.7133 36.2867 79.185C33.9696 78.8433 32.0273 77.8867 30.4598 76.315C28.8923 74.7433 27.9382 72.7958 27.5975 70.4725C25.2803 70.1308 23.3551 69.1571 21.8217 67.5513C20.2883 65.9454 19.3512 64.015 19.0104 61.76C16.4207 61.4183 14.308 60.2908 12.6724 58.3775C11.0368 56.4642 10.219 54.2092 10.219 51.6125C10.219 50.2458 10.4746 48.9304 10.9857 47.6662C11.4968 46.4021 12.2294 45.2917 13.1836 44.335L36.9 20.6575L50.2917 34.085C50.428 34.29 50.6324 34.4438 50.905 34.5462C51.1776 34.6488 51.4502 34.7 51.7229 34.7C52.3362 34.7 52.8473 34.5121 53.2562 34.1362C53.6651 33.7604 53.8696 33.265 53.8696 32.65C53.8696 32.3767 53.8185 32.1033 53.7163 31.83C53.614 31.5567 53.4607 31.3517 53.2562 31.215L38.6379 16.5575C37.8882 15.7375 37.0193 15.1396 36.0311 14.7638C35.0429 14.3879 34.0036 14.2 32.9132 14.2C31.891 14.2 30.8687 14.3879 29.8464 14.7638C28.8242 15.1396 27.9041 15.7375 27.0863 16.5575L12.6724 31.1125C12.0591 31.7275 11.5479 32.445 11.139 33.265C10.7301 34.085 10.4575 34.905 10.3212 35.725C10.1849 36.545 10.1849 37.3821 10.3212 38.2362C10.4575 39.0904 10.7301 39.8933 11.139 40.645L5.2099 46.59C4.05134 45.0183 3.19945 43.2929 2.65425 41.4137C2.10904 39.5346 1.90459 37.6383 2.04089 35.725C2.17719 33.8117 2.65425 31.9496 3.47206 30.1388C4.28987 28.3279 5.41436 26.705 6.84552 25.27L21.2594 10.8175C22.895 9.24583 24.7181 8.05 26.7285 7.23C28.739 6.41 30.8005 6 32.9132 6C35.0259 6 37.0875 6.41 39.0979 7.23C41.1084 8.05 42.8973 9.24583 44.4648 10.8175L45.5893 11.945L46.7138 10.8175C48.3494 9.24583 50.1724 8.05 52.1829 7.23C54.1933 6.41 56.2549 6 58.3676 6C60.4802 6 62.5418 6.41 64.5522 7.23C66.5627 8.05 68.3517 9.24583 69.9191 10.8175L87.1954 28.14C88.7628 29.7117 89.9555 31.5225 90.7733 33.5725C91.5911 35.6225 92 37.7067 92 39.825C92 41.9433 91.5911 44.0104 90.7733 46.0262C89.9555 48.0421 88.7628 49.8358 87.1954 51.4075L53.6651 84.925C52.711 85.8817 51.6036 86.6333 50.3428 87.18C49.082 87.7267 47.7701 88 46.4071 88Z" fill="#2CB6FF"/>
</svg>
