<svg width="94" height="94" viewBox="0 0 94 94" fill="none" xmlns="http://www.w3.org/2000/svg">
<path d="M64.2 44.8421C65.4183 44.8421 66.4396 44.4285 67.2638 43.6013C68.0879 42.7741 68.5 41.7491 68.5 40.5263C68.5 39.3035 68.0879 38.2785 67.2638 37.4513C66.4396 36.6241 65.4183 36.2105 64.2 36.2105C62.9817 36.2105 61.9604 36.6241 61.1362 37.4513C60.3121 38.2785 59.9 39.3035 59.9 40.5263C59.9 41.7491 60.3121 42.7741 61.1362 43.6013C61.9604 44.4285 62.9817 44.8421 64.2 44.8421ZM29.8 36.2105H51.3V27.5789H29.8V36.2105ZM14.75 88C12.3133 79.8 9.9125 71.618 7.5475 63.4539C5.1825 55.2899 4 46.9281 4 38.3684C4 31.7509 6.29333 26.1404 10.88 21.5368C15.4667 16.9333 21.0567 14.6316 27.65 14.6316H49.15C51.2283 11.8982 53.7546 9.77632 56.7288 8.26579C59.7029 6.75526 62.91 6 66.35 6C68.1417 6 69.6646 6.62939 70.9188 7.88816C72.1729 9.14693 72.8 10.6754 72.8 12.4737C72.8 12.9053 72.7463 13.3368 72.6387 13.7684C72.5312 14.2 72.4058 14.5956 72.2625 14.9553C71.9758 15.7465 71.7071 16.5557 71.4563 17.3829C71.2054 18.2101 71.0083 19.0553 70.865 19.9184L80.6475 29.7368H90V59.8395L77.8525 63.8316L70.65 88H47V79.3684H38.4V88H14.75ZM21.2 79.3684H29.8V70.7368H55.6V79.3684H64.2L70.865 57.1421L81.4 53.5816V38.3684H77.1L62.05 23.2632C62.05 21.8246 62.1396 20.4399 62.3188 19.1092C62.4979 17.7785 62.7667 16.4298 63.125 15.0632C61.0467 15.6386 59.2192 16.6276 57.6425 18.0303C56.0658 19.4329 54.9192 21.1772 54.2025 23.2632H27.65C23.4933 23.2632 19.9458 24.7377 17.0075 27.6868C14.0692 30.636 12.6 34.1965 12.6 38.3684C12.6 45.4175 13.5675 52.3048 15.5025 59.0303C17.4375 65.7557 19.3367 72.5351 21.2 79.3684Z" fill="#2CB6FF"/>
</svg>
