<svg width="94" height="94" viewBox="0 0 94 94" fill="none" xmlns="http://www.w3.org/2000/svg">
<path d="M19.8444 89C17.2333 89 15.0139 88.0812 13.1861 86.2437C11.3583 84.4062 10.4444 82.175 10.4444 79.55C10.4444 77.7125 10.9667 75.9844 12.0111 74.3656C13.0556 72.7469 14.4481 71.5875 16.1889 70.8875L36.5556 62.75V50.9375C31.8556 56.45 26.394 60.6719 20.1708 63.6031C13.9477 66.5344 7.22407 68 0 68V57.5C5.91852 57.5 11.2931 56.275 16.1236 53.825C20.9542 51.375 25.3278 47.875 29.2444 43.325L36.2944 34.925C37.3389 33.7 38.5574 32.7812 39.95 32.1687C41.3426 31.5562 42.8222 31.25 44.3889 31.25H49.6111C51.1778 31.25 52.6574 31.5562 54.05 32.1687C55.4426 32.7812 56.6611 33.7 57.7056 34.925L64.7556 43.325C68.6722 47.875 73.0458 51.375 77.8764 53.825C82.7069 56.275 88.0815 57.5 94 57.5V68C86.7759 68 80.0523 66.5344 73.8292 63.6031C67.606 60.6719 62.1444 56.45 57.4444 50.9375V62.75L77.8111 70.8875C79.5518 71.5875 80.9444 72.7469 81.9889 74.3656C83.0333 75.9844 83.5556 77.7125 83.5556 79.55C83.5556 82.175 82.6417 84.4062 80.8139 86.2437C78.9861 88.0812 76.7667 89 74.1556 89H36.5556V86.375C36.5556 84.1 37.2954 82.2188 38.775 80.7312C40.2546 79.2437 42.1259 78.5 44.3889 78.5H60.0556C60.8389 78.5 61.4699 78.2594 61.9486 77.7781C62.4273 77.2969 62.6667 76.6625 62.6667 75.875C62.6667 75.0875 62.4273 74.4531 61.9486 73.9719C61.4699 73.4906 60.8389 73.25 60.0556 73.25H44.3889C40.7333 73.25 37.6435 74.5187 35.1194 77.0562C32.5954 79.5938 31.3333 82.7 31.3333 86.375V89H19.8444ZM47 26C44.1278 26 41.669 24.9719 39.6236 22.9156C37.5782 20.8594 36.5556 18.3875 36.5556 15.5C36.5556 12.6125 37.5782 10.1406 39.6236 8.08437C41.669 6.02812 44.1278 5 47 5C49.8722 5 52.331 6.02812 54.3764 8.08437C56.4218 10.1406 57.4444 12.6125 57.4444 15.5C57.4444 18.3875 56.4218 20.8594 54.3764 22.9156C52.331 24.9719 49.8722 26 47 26Z" fill="#2CB6FF"/>
</svg>
